<svg width="1440" height="900" viewBox="0 0 1440 900" xmlns="http://www.w3.org/2000/svg" style="background:#1e1e1e;">
    <!-- Sidebar -->
    <rect x="0" y="0" width="60" height="900" fill="#252526" />
    
    <!-- Sidebar Icons -->
    <circle cx="30" cy="80" r="10" fill="#ffffff" />
    <circle cx="30" cy="130" r="10" fill="#ffffff" />
    <circle cx="30" cy="180" r="10" fill="#ffffff" />
    <circle cx="30" cy="230" r="10" fill="#ffffff" />
    <circle cx="30" cy="280" r="10" fill="#ffffff" />
    
    <!-- Top Menu Bar -->
    <rect x="60" y="0" width="1380" height="30" fill="#333337" />
    <text x="70" y="20" font-size="14" fill="#ffffff" font-family="Arial">File Edit Selection View Go Run Terminal Help</text>
    
    <!-- GPT Assistant Panel -->
    <rect x="1180" y="30" width="260" height="870" fill="#2d2d30" />
    <text x="1200" y="60" font-size="18" fill="#ffffff" font-family="Arial">🤖 GPT Assistant</text>
    <rect x="1200" y="90" width="220" height="600" fill="#3e3e42" rx="8" />
    <text x="1210" y="110" font-size="14" fill="#ffffff" font-family="Arial">Explicações e Sugestões</text>
    
    <!-- Code Editor -->
    <rect x="60" y="30" width="1120" height="870" fill="#1e1e1e" />
    <text x="80" y="60" font-size="16" fill="#ffffff" font-family="Arial">Editor de Código</text>
    <rect x="80" y="90" width="1080" height="600" fill="#2d2d30" rx="5" />
    
    <!-- Bottom Status Bar -->
    <rect x="60" y="880" width="1120" height="20" fill="#007acc" />
    <text x="80" y="895" font-size="12" fill="#ffffff" font-family="Arial">✔️ VS Code - Integração com IA Ativada</text>
    
    <!-- Quick Chat Box -->
    <rect x="60" y="800" width="1120" height="50" fill="#3e3e42" rx="8" />
    <text x="80" y="830" font-size="14" fill="#ffffff" font-family="Arial">💬 Pergunte algo ao GPT...</text>
    
    <!-- Smart Autocomplete -->
    <rect x="400" y="300" width="300" height="150" fill="#252526" stroke="#ffffff" stroke-width="1" rx="5" />
    <text x="420" y="320" font-size="14" fill="#ffffff" font-family="Arial">⚡ Sugestão de Código</text>
    <text x="420" y="350" font-size="12" fill="#ffffff" font-family="Arial">function somar(a, b) {</text>
    <text x="420" y="370" font-size="12" fill="#ffffff" font-family="Arial"> return a + b;</text>
    <text x="420" y="390" font-size="12" fill="#ffffff" font-family="Arial">}</text>
</svg>
